<svg width="332" height="283" viewBox="0 0 332 283" fill="none" xmlns="http://www.w3.org/2000/svg">
<path d="M148.97 0C149.717 0 150.2 0.790994 149.859 1.45599L117.407 64.778C117.084 65.408 117.5 66.165 118.205 66.23L168.301 70.855C169.031 70.923 169.443 71.727 169.07 72.358L150.514 103.817C150.507 103.828 150.496 103.835 150.483 103.834C150.472 103.834 150.46 103.839 150.454 103.849L95.7692 186.844C95.1452 187.791 93.6752 187.131 93.9692 186.035L116.372 102.321L116.729 102.331L116.383 102.315C116.378 102.315 116.374 102.318 116.372 102.321L116.098 102.304L112.69 102.152C112.669 102.151 112.651 102.136 112.646 102.115C112.642 102.095 112.625 102.08 112.604 102.078L66.1672 99.086C65.5132 99.044 65.0752 98.394 65.2822 97.772L97.6442 0.684006C97.7812 0.275006 98.1622 0 98.5932 0H148.97Z" fill="white"/>
<path d="M175.948 0C191.491 0 207.347 3.118 221.652 11.686C221.699 11.713 221.747 11.74 221.793 11.768C221.794 11.768 221.794 11.768 221.793 11.768C221.793 11.768 221.793 11.77 221.794 11.77C235.867 20.192 246.669 32.597 253.622 48.033C260.274 62.752 262.873 78.705 262.873 94.642C262.873 110.725 260.233 126.799 253.511 141.62C246.624 156.806 236.268 169.193 221.436 177.887C207.571 186.015 191.833 189.84 175.112 189.84H109.275C108.476 189.84 107.999 188.95 108.442 188.285L133.101 151.285C133.286 151.007 133.599 150.84 133.933 150.84H175.112C186.223 150.84 195.518 148.401 203.136 144.117L203.869 143.697C211.378 139.295 216.514 133.393 220.288 125.398L220.649 124.618C224.336 116.488 226.237 106.856 226.353 95.724L226.358 94.642C226.358 83.142 224.479 73.242 220.719 64.942C216.959 56.596 211.342 50.197 203.869 45.746C196.629 41.389 187.668 39.143 176.986 39.007L175.948 39H124.449C124.361 39 124.281 39.048 124.24 39.125C124.199 39.203 124.119 39.251 124.031 39.251H97.4577C97.3287 39.251 97.2227 39.147 97.2227 39.019C97.2227 39.006 97.2237 38.994 97.2247 38.982L103.24 0.843994C103.317 0.357994 103.735 0 104.228 0H175.948Z" fill="white"/>
<path d="M15.28 281.84H0V236.749H15.589C20.065 236.749 23.911 237.652 27.125 239.457C30.355 241.248 32.835 243.824 34.567 247.185C36.299 250.546 37.165 254.568 37.165 259.25C37.165 263.947 36.292 267.984 34.545 271.36C32.813 274.736 30.311 277.326 27.037 279.132C23.779 280.937 19.86 281.84 15.28 281.84ZM8.16901 274.772H14.884C18.025 274.772 20.645 274.2 22.744 273.055C24.843 271.895 26.421 270.171 27.478 267.881C28.535 265.577 29.063 262.7 29.063 259.25C29.063 255.801 28.535 252.939 27.478 250.664C26.421 248.374 24.858 246.664 22.788 245.534C20.733 244.389 18.179 243.816 15.126 243.816H8.16901V274.772ZM43.066 281.84V236.749H72.393V243.596H51.235V255.838H70.874V262.685H51.235V274.993H72.569V281.84H43.066ZM84.899 236.749L96.634 272.24H97.096L108.81 236.749H117.793L101.896 281.84H91.812L75.938 236.749H84.899ZM146.377 249.145C146.171 247.222 145.305 245.725 143.779 244.653C142.267 243.582 140.3 243.046 137.878 243.046C136.175 243.046 134.715 243.303 133.497 243.816C132.278 244.33 131.346 245.027 130.7 245.908C130.055 246.789 129.724 247.794 129.71 248.924C129.71 249.864 129.923 250.678 130.348 251.368C130.789 252.058 131.383 252.645 132.132 253.13C132.88 253.599 133.709 253.996 134.619 254.319C135.53 254.641 136.447 254.913 137.372 255.133L141.599 256.19C143.302 256.586 144.938 257.122 146.509 257.797C148.094 258.472 149.51 259.324 150.758 260.351C152.02 261.379 153.018 262.619 153.752 264.072C154.486 265.525 154.853 267.228 154.853 269.18C154.853 271.822 154.178 274.149 152.828 276.159C151.477 278.156 149.525 279.719 146.971 280.849C144.432 281.965 141.357 282.522 137.746 282.522C134.238 282.522 131.192 281.979 128.609 280.893C126.04 279.807 124.029 278.222 122.576 276.137C121.138 274.053 120.36 271.514 120.242 268.52H128.279C128.396 270.09 128.88 271.396 129.732 272.439C130.583 273.481 131.691 274.259 133.056 274.772C134.436 275.286 135.977 275.543 137.68 275.543C139.456 275.543 141.012 275.279 142.347 274.75C143.698 274.207 144.755 273.459 145.518 272.505C146.281 271.536 146.67 270.406 146.685 269.114C146.67 267.94 146.325 266.971 145.65 266.208C144.975 265.43 144.028 264.784 142.81 264.27C141.606 263.742 140.197 263.272 138.583 262.861L133.453 261.54C129.739 260.586 126.803 259.14 124.646 257.203C122.503 255.251 121.431 252.66 121.431 249.431C121.431 246.774 122.15 244.448 123.589 242.451C125.042 240.455 127.016 238.907 129.512 237.806C132.007 236.69 134.832 236.132 137.988 236.132C141.188 236.132 143.991 236.69 146.399 237.806C148.82 238.907 150.721 240.44 152.101 242.407C153.481 244.359 154.193 246.605 154.237 249.145H146.377ZM160.275 281.84V236.749H168.444V255.838H189.338V236.749H197.528V281.84H189.338V262.685H168.444V281.84H160.275ZM244.843 259.294C244.843 264.153 243.933 268.314 242.113 271.778C240.308 275.227 237.842 277.869 234.715 279.704C231.604 281.539 228.074 282.456 224.125 282.456C220.177 282.456 216.639 281.539 213.513 279.704C210.401 277.855 207.935 275.205 206.115 271.756C204.31 268.292 203.407 264.138 203.407 259.294C203.407 254.436 204.31 250.282 206.115 246.833C207.935 243.369 210.401 240.719 213.513 238.885C216.639 237.05 220.177 236.132 224.125 236.132C228.074 236.132 231.604 237.05 234.715 238.885C237.842 240.719 240.308 243.369 242.113 246.833C243.933 250.282 244.843 254.436 244.843 259.294ZM236.631 259.294C236.631 255.874 236.095 252.99 235.024 250.642C233.967 248.279 232.499 246.495 230.62 245.292C228.741 244.073 226.576 243.464 224.125 243.464C221.674 243.464 219.509 244.073 217.63 245.292C215.751 246.495 214.276 248.279 213.205 250.642C212.148 252.99 211.619 255.874 211.619 259.294C211.619 262.714 212.148 265.606 213.205 267.969C214.276 270.318 215.751 272.101 217.63 273.319C219.509 274.523 221.674 275.125 224.125 275.125C226.576 275.125 228.741 274.523 230.62 273.319C232.499 272.101 233.967 270.318 235.024 267.969C236.095 265.606 236.631 262.714 236.631 259.294ZM289.302 251.963H281.067C280.832 250.612 280.399 249.416 279.768 248.374C279.137 247.317 278.352 246.422 277.412 245.688C276.473 244.954 275.401 244.404 274.198 244.037C273.009 243.655 271.725 243.464 270.345 243.464C267.894 243.464 265.721 244.081 263.828 245.314C261.934 246.532 260.452 248.323 259.38 250.686C258.309 253.034 257.773 255.904 257.773 259.294C257.773 262.744 258.309 265.65 259.38 268.013C260.467 270.362 261.949 272.138 263.828 273.341C265.721 274.53 267.886 275.125 270.323 275.125C271.673 275.125 272.936 274.949 274.11 274.596C275.299 274.229 276.363 273.694 277.302 272.989C278.256 272.284 279.056 271.418 279.702 270.391C280.363 269.364 280.818 268.189 281.067 266.868L289.302 266.912C288.993 269.055 288.325 271.066 287.298 272.945C286.285 274.824 284.957 276.482 283.313 277.921C281.669 279.345 279.746 280.46 277.544 281.267C275.343 282.06 272.899 282.456 270.213 282.456C266.25 282.456 262.712 281.539 259.601 279.704C256.489 277.869 254.038 275.22 252.247 271.756C250.456 268.292 249.561 264.138 249.561 259.294C249.561 254.436 250.463 250.282 252.269 246.833C254.074 243.369 256.533 240.719 259.645 238.885C262.756 237.05 266.279 236.132 270.213 236.132C272.723 236.132 275.057 236.485 277.214 237.189C279.372 237.894 281.295 238.929 282.983 240.294C284.671 241.644 286.058 243.303 287.144 245.27C288.245 247.222 288.964 249.453 289.302 251.963ZM294.922 281.84V236.749H303.09V257.467H303.641L321.232 236.749H331.206L313.768 256.983L331.36 281.84H321.54L308.088 262.509L303.09 268.409V281.84H294.922Z" fill="white"/>
<path d="M148.97 0C149.717 0 150.2 0.790994 149.859 1.45599L117.407 64.778C117.084 65.408 117.5 66.165 118.205 66.23L168.301 70.855C169.031 70.923 169.443 71.727 169.07 72.358L150.514 103.817C150.507 103.828 150.496 103.835 150.483 103.834C150.472 103.834 150.46 103.839 150.454 103.849L95.7692 186.844C95.1452 187.791 93.6752 187.131 93.9692 186.035L116.372 102.321L116.729 102.331L116.383 102.315C116.378 102.315 116.374 102.318 116.372 102.321L116.098 102.304L112.69 102.152C112.669 102.151 112.651 102.136 112.646 102.115C112.642 102.095 112.625 102.08 112.604 102.078L66.1672 99.086C65.5132 99.044 65.0752 98.394 65.2822 97.772L97.6442 0.684006C97.7812 0.275006 98.1622 0 98.5932 0H148.97Z" fill="white"/>
<path d="M175.948 0C191.491 0 207.347 3.118 221.652 11.686C221.699 11.713 221.747 11.74 221.793 11.768C221.794 11.768 221.794 11.768 221.793 11.768C221.793 11.768 221.793 11.77 221.794 11.77C235.867 20.192 246.669 32.597 253.622 48.033C260.274 62.752 262.873 78.705 262.873 94.642C262.873 110.725 260.233 126.799 253.511 141.62C246.624 156.806 236.268 169.193 221.436 177.887C207.571 186.015 191.833 189.84 175.112 189.84H109.275C108.476 189.84 107.999 188.95 108.442 188.285L133.101 151.285C133.286 151.007 133.599 150.84 133.933 150.84H175.112C186.223 150.84 195.518 148.401 203.136 144.117L203.869 143.697C211.378 139.295 216.514 133.393 220.288 125.398L220.649 124.618C224.336 116.488 226.237 106.856 226.353 95.724L226.358 94.642C226.358 83.142 224.479 73.242 220.719 64.942C216.959 56.596 211.342 50.197 203.869 45.746C196.629 41.389 187.668 39.143 176.986 39.007L175.948 39H124.449C124.361 39 124.281 39.048 124.24 39.125C124.199 39.203 124.119 39.251 124.031 39.251H97.4577C97.3287 39.251 97.2227 39.147 97.2227 39.019C97.2227 39.006 97.2237 38.994 97.2247 38.982L103.24 0.843994C103.317 0.357994 103.735 0 104.228 0H175.948Z" fill="white"/>
<path d="M15.28 281.84H0V236.749H15.589C20.065 236.749 23.911 237.652 27.125 239.457C30.355 241.248 32.835 243.824 34.567 247.185C36.299 250.546 37.165 254.568 37.165 259.25C37.165 263.947 36.292 267.984 34.545 271.36C32.813 274.736 30.311 277.326 27.037 279.132C23.779 280.937 19.86 281.84 15.28 281.84ZM8.16901 274.772H14.884C18.025 274.772 20.645 274.2 22.744 273.055C24.843 271.895 26.421 270.171 27.478 267.881C28.535 265.577 29.063 262.7 29.063 259.25C29.063 255.801 28.535 252.939 27.478 250.664C26.421 248.374 24.858 246.664 22.788 245.534C20.733 244.389 18.179 243.816 15.126 243.816H8.16901V274.772ZM43.066 281.84V236.749H72.393V243.596H51.235V255.838H70.874V262.685H51.235V274.993H72.569V281.84H43.066ZM84.899 236.749L96.634 272.24H97.096L108.81 236.749H117.793L101.896 281.84H91.812L75.938 236.749H84.899ZM146.377 249.145C146.171 247.222 145.305 245.725 143.779 244.653C142.267 243.582 140.3 243.046 137.878 243.046C136.175 243.046 134.715 243.303 133.497 243.816C132.278 244.33 131.346 245.027 130.7 245.908C130.055 246.789 129.724 247.794 129.71 248.924C129.71 249.864 129.923 250.678 130.348 251.368C130.789 252.058 131.383 252.645 132.132 253.13C132.88 253.599 133.709 253.996 134.619 254.319C135.53 254.641 136.447 254.913 137.372 255.133L141.599 256.19C143.302 256.586 144.938 257.122 146.509 257.797C148.094 258.472 149.51 259.324 150.758 260.351C152.02 261.379 153.018 262.619 153.752 264.072C154.486 265.525 154.853 267.228 154.853 269.18C154.853 271.822 154.178 274.149 152.828 276.159C151.477 278.156 149.525 279.719 146.971 280.849C144.432 281.965 141.357 282.522 137.746 282.522C134.238 282.522 131.192 281.979 128.609 280.893C126.04 279.807 124.029 278.222 122.576 276.137C121.138 274.053 120.36 271.514 120.242 268.52H128.279C128.396 270.09 128.88 271.396 129.732 272.439C130.583 273.481 131.691 274.259 133.056 274.772C134.436 275.286 135.977 275.543 137.68 275.543C139.456 275.543 141.012 275.279 142.347 274.75C143.698 274.207 144.755 273.459 145.518 272.505C146.281 271.536 146.67 270.406 146.685 269.114C146.67 267.94 146.325 266.971 145.65 266.208C144.975 265.43 144.028 264.784 142.81 264.27C141.606 263.742 140.197 263.272 138.583 262.861L133.453 261.54C129.739 260.586 126.803 259.14 124.646 257.203C122.503 255.251 121.431 252.66 121.431 249.431C121.431 246.774 122.15 244.448 123.589 242.451C125.042 240.455 127.016 238.907 129.512 237.806C132.007 236.69 134.832 236.132 137.988 236.132C141.188 236.132 143.991 236.69 146.399 237.806C148.82 238.907 150.721 240.44 152.101 242.407C153.481 244.359 154.193 246.605 154.237 249.145H146.377ZM160.275 281.84V236.749H168.444V255.838H189.338V236.749H197.528V281.84H189.338V262.685H168.444V281.84H160.275ZM244.843 259.294C244.843 264.153 243.933 268.314 242.113 271.778C240.308 275.227 237.842 277.869 234.715 279.704C231.604 281.539 228.074 282.456 224.125 282.456C220.177 282.456 216.639 281.539 213.513 279.704C210.401 277.855 207.935 275.205 206.115 271.756C204.31 268.292 203.407 264.138 203.407 259.294C203.407 254.436 204.31 250.282 206.115 246.833C207.935 243.369 210.401 240.719 213.513 238.885C216.639 237.05 220.177 236.132 224.125 236.132C228.074 236.132 231.604 237.05 234.715 238.885C237.842 240.719 240.308 243.369 242.113 246.833C243.933 250.282 244.843 254.436 244.843 259.294ZM236.631 259.294C236.631 255.874 236.095 252.99 235.024 250.642C233.967 248.279 232.499 246.495 230.62 245.292C228.741 244.073 226.576 243.464 224.125 243.464C221.674 243.464 219.509 244.073 217.63 245.292C215.751 246.495 214.276 248.279 213.205 250.642C212.148 252.99 211.619 255.874 211.619 259.294C211.619 262.714 212.148 265.606 213.205 267.969C214.276 270.318 215.751 272.101 217.63 273.319C219.509 274.523 221.674 275.125 224.125 275.125C226.576 275.125 228.741 274.523 230.62 273.319C232.499 272.101 233.967 270.318 235.024 267.969C236.095 265.606 236.631 262.714 236.631 259.294ZM289.302 251.963H281.067C280.832 250.612 280.399 249.416 279.768 248.374C279.137 247.317 278.352 246.422 277.412 245.688C276.473 244.954 275.401 244.404 274.198 244.037C273.009 243.655 271.725 243.464 270.345 243.464C267.894 243.464 265.721 244.081 263.828 245.314C261.934 246.532 260.452 248.323 259.38 250.686C258.309 253.034 257.773 255.904 257.773 259.294C257.773 262.744 258.309 265.65 259.38 268.013C260.467 270.362 261.949 272.138 263.828 273.341C265.721 274.53 267.886 275.125 270.323 275.125C271.673 275.125 272.936 274.949 274.11 274.596C275.299 274.229 276.363 273.694 277.302 272.989C278.256 272.284 279.056 271.418 279.702 270.391C280.363 269.364 280.818 268.189 281.067 266.868L289.302 266.912C288.993 269.055 288.325 271.066 287.298 272.945C286.285 274.824 284.957 276.482 283.313 277.921C281.669 279.345 279.746 280.46 277.544 281.267C275.343 282.06 272.899 282.456 270.213 282.456C266.25 282.456 262.712 281.539 259.601 279.704C256.489 277.869 254.038 275.22 252.247 271.756C250.456 268.292 249.561 264.138 249.561 259.294C249.561 254.436 250.463 250.282 252.269 246.833C254.074 243.369 256.533 240.719 259.645 238.885C262.756 237.05 266.279 236.132 270.213 236.132C272.723 236.132 275.057 236.485 277.214 237.189C279.372 237.894 281.295 238.929 282.983 240.294C284.671 241.644 286.058 243.303 287.144 245.27C288.245 247.222 288.964 249.453 289.302 251.963ZM294.922 281.84V236.749H303.09V257.467H303.641L321.232 236.749H331.206L313.768 256.983L331.36 281.84H321.54L308.088 262.509L303.09 268.409V281.84H294.922Z" fill="white"/>
</svg>
